<svg width="21" height="20" viewBox="0 0 21 20" fill="none" xmlns="http://www.w3.org/2000/svg">
<path d="M20.3148 8.24289C20.3148 3.69788 15.7584 0 10.1574 0C4.55713 0 0 3.69788 0 8.24289C0 12.3177 3.61371 15.73 8.49469 16.3754C8.82553 16.4465 9.27585 16.5935 9.38977 16.8762C9.49203 17.1328 9.4567 17.5352 9.42255 17.7947C9.42255 17.7947 9.30328 18.5112 9.27747 18.6642C9.23331 18.9209 9.07333 19.6685 10.1574 19.2117C11.2415 18.7549 16.0069 15.7672 18.1381 13.3145C19.6102 11.7002 20.3148 10.0619 20.3148 8.24289Z" fill="white"/>
<path d="M8.09351 6.04688H7.38092C7.27167 6.04688 7.18311 6.13522 7.18311 6.24426V10.6703C7.18311 10.7793 7.27167 10.8676 7.38092 10.8676H8.09351C8.20255 10.8676 8.29135 10.7793 8.29135 10.6703V6.24426C8.29135 6.13522 8.20255 6.04688 8.09351 6.04688Z" fill="#00B900"/>
<path d="M12.9975 6.04688H12.2849C12.1756 6.04688 12.0871 6.13522 12.0871 6.24426V8.87363L10.0589 6.13477C10.0543 6.12756 10.0489 6.12103 10.0435 6.11453L10.0422 6.11337C10.0384 6.10895 10.0342 6.10498 10.0303 6.10104L10.0266 6.09778C10.0233 6.09476 10.0198 6.09174 10.0161 6.08896L10.011 6.08502C10.0075 6.08243 10.0043 6.08011 10.0008 6.07779L9.99472 6.07431C9.99124 6.0722 9.98776 6.07013 9.98428 6.06851L9.97797 6.06546C9.97427 6.06384 9.97055 6.06198 9.96661 6.06061L9.96008 6.05826C9.95636 6.05688 9.95242 6.05569 9.94846 6.05453L9.9415 6.05267C9.93777 6.05176 9.93405 6.05106 9.93011 6.05014L9.92172 6.04895C9.91846 6.04849 9.91498 6.04803 9.91125 6.04779C9.90799 6.04733 9.90451 6.04733 9.90103 6.04712L9.89432 6.04688H9.18173C9.07269 6.04688 8.98389 6.13522 8.98389 6.24426V10.6703C8.98389 10.7793 9.07269 10.8676 9.18173 10.8676H9.89432C10.0036 10.8676 10.0922 10.7793 10.0922 10.6703V8.04156L12.1229 10.7842C12.1368 10.8039 12.1543 10.82 12.1731 10.833L12.1752 10.8344C12.1791 10.8372 12.1831 10.8398 12.1873 10.8418L12.1931 10.8448C12.1961 10.8465 12.1991 10.8481 12.2024 10.8495C12.2057 10.8509 12.2087 10.8523 12.2122 10.8537L12.218 10.8558C12.2226 10.8574 12.227 10.8588 12.2314 10.8602L12.2343 10.8609C12.2503 10.8651 12.2675 10.8676 12.2849 10.8676H12.9975C13.1068 10.8676 13.1953 10.7793 13.1953 10.6703V6.24426C13.1953 6.13522 13.1068 6.04688 12.9975 6.04688Z" fill="#00B900"/>
<path d="M6.37592 9.75912H4.44003V6.24423C4.44003 6.13498 4.35168 6.04639 4.2424 6.04639H3.52988C3.42059 6.04639 3.33203 6.13498 3.33203 6.24423V10.6696C3.33203 10.7228 3.35318 10.7709 3.38736 10.8065L3.39014 10.8095L3.39291 10.8123C3.4285 10.8465 3.47641 10.8674 3.52963 10.8674H6.37592C6.48517 10.8674 6.57352 10.7788 6.57352 10.6696V9.95697C6.57352 9.84772 6.48517 9.75912 6.37592 9.75912Z" fill="#00B900"/>
<path d="M16.9318 7.15512C17.0408 7.15512 17.1292 7.06653 17.1292 6.95728V6.24472C17.1292 6.13547 17.0408 6.04688 16.9318 6.04688H14.0855C14.0321 6.04688 13.9837 6.06802 13.9479 6.10266L13.9458 6.10477L13.9425 6.10825C13.9086 6.14359 13.8877 6.1915 13.8877 6.24451V10.6698C13.8877 10.723 13.9088 10.7714 13.943 10.8067L13.9458 10.8098L13.9486 10.8123C13.9842 10.8465 14.032 10.8676 14.0853 10.8676H16.9318C17.0408 10.8676 17.1292 10.7791 17.1292 10.6698V9.95724C17.1292 9.84796 17.0408 9.7594 16.9318 9.7594H14.9959V9.01126H16.9318C17.0408 9.01126 17.1292 8.92267 17.1292 8.81342V8.1011C17.1292 7.99161 17.0408 7.90302 16.9318 7.90302H14.9959V7.15512H16.9318Z" fill="#00B900"/>
</svg>
